#!OML:ASF I:\Actors\actors\Patient Classification 2\Patient 1\Session 1\actor1.ASF
:FULLY-SPECIFIED
:DEGREES
935
root -0.702863 18.65 5.79437 -0.735428 -0.132254 -2.78927
lowerback 7.4875 0.662281 1.42887
upperback 1.44158 1.05138 1.90633
thorax -2.71815 0.517216 1.06202
lowerneck -9.02627 -3.17156 -4.09132
upperneck 24.5592 -4.02397 1.40143
head 9.31418 -2.10143 0.747421
rclavicle 3.8266e-015 -9.54166e-015
rhumerus -5.85405 24.1789 -50.7326
rradius 116.551
rwrist -52.3194
rhand 10.2897 -52.0048
rfingers 7.12502
rthumb 35.4011 -78.4662
lclavicle 3.8266e-015 -9.54166e-015
lhumerus -46.4549 -0.568407 86.5818
lradius 49.7836
lwrist -1.61862
lhand -7.30879 -24.8071
lfingers 7.12502
lthumb 18.5738 4.32613
rfemur 0 0 0
rtibia 0
rfoot 0 0
rtoes 0
lfemur -3.90824 -3.07717 -11.1136
ltibia 23.818
lfoot -21.5844 10.6329
ltoes -56.3799
936
root -0.703148 18.6477 5.80707 -0.864171 -0.134569 -2.84899
lowerback 7.31607 0.677619 1.40159
upperback 1.39197 1.06687 1.92308
thorax -2.67485 0.525384 1.0948
lowerneck -9.24723 -3.22265 -4.06699
upperneck 24.9238 -4.08408 1.34824
head 9.48489 -2.13234 0.713226
rclavicle -1.05356e-014 -9.93923e-015
rhumerus -6.23041 24.2663 -51.3834
rradius 116.27
rwrist -51.963
rhand 10.155 -51.8152
rfingers 7.12502
rthumb 35.2733 -78.307
lclavicle -1.05356e-014 -9.93923e-015
lhumerus -46.3938 -0.534714 86.5718
lradius 49.6164
lwrist -1.68369
lhand -7.31969 -24.8118
lfingers 7.12502
lthumb 18.5633 4.32246
rfemur 0 0 0
rtibia 0
rfoot 0 0
rtoes 0
lfemur -3.69347 -3.18175 -11.0601
ltibia 23.81
lfoot -21.7047 10.6046
ltoes -56.3235
937
root -0.704134 18.6455 5.81735 -0.937859 -0.118107 -2.92595
lowerback 7.1 0.686104 1.38487
upperback 1.35154 1.07286 1.94597
thorax -2.59696 0.528886 1.12948
lowerneck -9.5044 -3.23707 -4.03097
upperneck 25.2465 -4.09437 1.30228
head 9.64694 -2.13777 0.684381
rclavicle -2.09469e-014 -3.77691e-015
rhumerus -6.60281 24.3353 -52.0245
rradius 116.016
rwrist -51.7006
rhand 10.2397 -51.8146
rfingers 7.12502
rthumb 35.3536 -78.2874
lclavicle -2.09469e-014 -3.77691e-015
lhumerus -46.3033 -0.508975 86.578
lradius 49.4804
lwrist -1.71179
lhand -7.29448 -24.8419
lfingers 7.12502
lthumb 18.5876 4.29
rfemur 0 0 0
rtibia 0
rfoot 0 0
rtoes 0
lfemur -3.59185 -3.15556 -10.9793
ltibia 23.8103
lfoot -21.6298 10.6659
ltoes -56.3895
938
root -0.7037 18.6429 5.82692 -1.03281 -0.0749731 -2.97028
lowerback 6.9068 0.679828 1.37864
upperback 1.29905 1.06077 1.96312
thorax -2.54373 0.523187 1.15369
lowerneck -9.66832 -3.23413 -4.07136
upperneck 25.5263 -4.08349 1.31611
head 9.77939 -2.13463 0.693269
rclavicle 3.10601e-015 -4.37326e-015
rhumerus -6.95684 24.4266 -52.578
rradius 115.777
rwrist -51.4037
rhand 10.4416 -52.0003
rfingers 7.12502
rthumb 35.545 -78.4273
lclavicle 3.10601e-015 -4.37326e-015
lhumerus -46.2948 -0.37888 86.5721
lradius 49.2703
lwrist -1.60449
lhand -7.30368 -25.3071
lfingers 7.12502
lthumb 18.5787 3.82569
rfemur 0 0 0
rtibia 0
rfoot 0 0
rtoes 0
lfemur -3.47695 -3.15979 -10.9435
ltibia 23.8082
lfoot -21.5946 10.7147
ltoes -56.6646
939
root -0.702279 18.6402 5.83716 -1.17494 -0.0642268 -3.0199
lowerback 6.77364 0.683655 1.40886
upperback 1.22929 1.06615 1.9582
thorax -2.54082 0.525636 1.1323
lowerneck -9.7761 -3.24948 -4.0785
upperneck 25.8381 -4.09984 1.29822
head 9.91255 -2.14497 0.683189
rclavicle 1.56543e-014 2.40529e-014
rhumerus -7.38258 24.502 -53.181
rradius 115.541
rwrist -51.089
rhand 10.5062 -52.0601
rfingers 7.12502
rthumb 35.6063 -78.4723
lclavicle 1.56543e-014 2.40529e-014
lhumerus -46.3391 -0.176479 86.4667
lradius 48.7623
lwrist -1.2375
lhand -7.49442 -26.9875
lfingers 7.12502
lthumb 18.3952 2.16273
rfemur 0 0 0
rtibia 0
rfoot 0 0
rtoes 0
lfemur -3.27387 -3.22804 -10.9116
ltibia 23.7946
lfoot -21.684 10.7229
ltoes -56.6934
940
root -0.701807 18.6367 5.84904 -1.31748 -0.0852851 -3.04806
lowerback 6.59945 0.695415 1.3999
upperback 1.17903 1.07733 1.94278
thorax -2.49543 0.53141 1.12217
lowerneck -9.86035 -3.27105 -4.1509
upperneck 26.1276 -4.13685 1.37306
head 10.0382 -2.16102 0.714654
rclavicle -2.77056e-015 5.36719e-015
rhumerus -7.83137 24.5784 -53.8155
rradius 115.316
rwrist -50.8068
rhand 10.3925 -51.8169
rfingers 7.12502
rthumb 35.4985 -78.2551
lclavicle -2.77056e-015 5.36719e-015
lhumerus -46.3416 6.58674e-005 86.3837
lradius 48.5995
lwrist -1.49022
lhand -7.44023 -27.1261
lfingers 7.12502
lthumb 18.4474 2.01922
rfemur 0 0 0
rtibia 0
rfoot 0 0
rtoes 0
lfemur -3.05857 -3.31338 -10.9072
ltibia 23.7849
lfoot -21.7692 10.7872
ltoes -56.6791
941
root -0.702153 18.6335 5.86152 -1.42136 -0.0878033 -3.04024
lowerback 6.36891 0.701515 1.32671
upperback 1.13167 1.07524 1.93143
thorax -2.41667 0.531205 1.15416
lowerneck -9.97252 -3.2977 -4.29455
upperneck 26.4096 -4.18332 1.5156
head 10.1711 -2.18054 0.780607
rclavicle 2.3233e-015 -6.75868e-015
rhumerus -8.24438 24.6666 -54.4131
rradius 115.101
rwrist -50.5993
rhand 10.1449 -51.5114
rfingers 7.12502
rthumb 35.2638 -78.0055
lclavicle 2.3233e-015 -6.75868e-015
lhumerus -46.3346 0.0950792 86.3589
lradius 48.4813
lwrist -1.56548
lhand -7.43575 -27.1593
lfingers 7.12502
lthumb 18.4517 1.98553
rfemur 0 0 0
rtibia 0
rfoot 0 0
rtoes 0
lfemur -2.87621 -3.47702 -10.9364
ltibia 23.7859
lfoot -21.9537 10.7528
ltoes -56.379
942
root -0.703482 18.6315 5.87161 -1.51632 -0.0981367 -3.09217
lowerback 6.19592 0.724313 1.3093
upperback 1.06497 1.10181 1.93778
thorax -2.38956 0.544722 1.16997
lowerneck -10.0706 -3.33592 -4.40708
upperneck 26.6689 -4.25341 1.65879
head 10.2937 -2.2077 0.839337
rclavicle 3.6154e-015 1.45113e-014
rhumerus -8.67261 24.7116 -54.992
rradius 114.894
rwrist -50.5033
rhand 9.84765 -51.4632
rfingers 7.12502
rthumb 34.9818 -78.0235
lclavicle 3.6154e-015 1.45113e-014
lhumerus -46.4603 0.0480155 86.399
lradius 48.5535
lwrist -1.53857
lhand -7.42768 -27.0598
lfingers 7.12502
lthumb 18.4595 2.08436
rfemur 0 0 0
rtibia 0
rfoot 0 0
rtoes 0
lfemur -2.69306 -3.6389 -10.8803
ltibia 23.79
lfoot -22.2188 10.5377
ltoes -56.0247
943
root -0.706294 18.6291 5.87929 -1.62158 -0.132531 -3.18477
lowerback 6.08594 0.75979 1.33593
upperback 0.98519 1.15034 1.95194
thorax -2.41066 0.568694 1.16658
lowerneck -10.2205 -3.36806 -4.48824
upperneck 26.9925 -4.31239 1.77124
head 10.4491 -2.2296 0.882422
rclavicle -3.71479e-015 -1.27222e-014
rhumerus -9.10961 24.736 -55.5845
rradius 114.666
rwrist -50.2936
rhand 9.82932 -51.6991
rfingers 7.12502
rthumb 34.9644 -78.2635
lclavicle -3.71479e-015 -1.27222e-014
lhumerus -46.5966 0.0114361 86.445
lradius 48.6186
lwrist -1.58855
lhand -7.43926 -27.008
lfingers 7.12502
lthumb 18.4483 2.13716
rfemur 0 0 0
rtibia 0
rfoot 0 0
rtoes 0
lfemur -2.53307 -3.66137 -10.7668
ltibia 23.8009
lfoot -22.3236 10.3861
ltoes -55.8813
